<svg width="96" height="96" viewBox="0 0 96 96" fill="none" xmlns="http://www.w3.org/2000/svg">
  <rect width="96" height="96" rx="28" fill="url(#paint0_linear_1_3)"/>
  <path d="M28 31C34.4 24.6 41 21.6 48 21.6C55 21.6 61.6 24.6 68 31" stroke="#FFF3E3" stroke-width="6" stroke-linecap="round"/>
  <path d="M21 44.4C27.4 37.6 36.4 34 48 34C59.6 34 68.6 37.6 75 44.4" stroke="#FFF3E3" stroke-width="6" stroke-linecap="round"/>
  <path d="M24 54.8C31 66.2 39 72 48 72C57 72 65 66.2 72 54.8" stroke="#FFF3E3" stroke-width="6" stroke-linecap="round"/>
  <ellipse cx="48" cy="48" rx="17" ry="12" fill="#FFF3E3" fill-opacity="0.18"/>
  <ellipse cx="48" cy="48" rx="13" ry="8.5" stroke="#FFF3E3" stroke-width="4.8"/>
  <circle cx="48" cy="48" r="4.2" fill="#FFF3E3"/>
  <circle cx="48" cy="18" r="3" fill="#FFF3E3" fill-opacity="0.9"/>
  <defs>
    <linearGradient id="paint0_linear_1_3" x1="12" y1="10" x2="82" y2="87" gradientUnits="userSpaceOnUse">
      <stop stop-color="#F1D0AE"/>
      <stop offset="0.68" stop-color="#815540"/>
      <stop offset="1" stop-color="#4B2E21"/>
    </linearGradient>
  </defs>
</svg>
